<svg xmlns="http://www.w3.org/2000/svg" version="1.1" xmlns:xlink="http://www.w3.org/1999/xlink" xmlns:svgjs="http://svgjs.dev/svgjs" width="1440" height="150" preserveAspectRatio="none" viewBox="0 0 1440 150"><g mask="url(&quot;#SvgjsMask1028&quot;)" fill="none"><rect width="1440" height="150" x="0" y="0" fill="rgba(0, 51, 117, 1)"></rect><path d="M 0,13 C 57.6,21.8 172.8,54.8 288,57 C 403.2,59.2 460.8,24.2 576,24 C 691.2,23.8 748.8,60.4 864,56 C 979.2,51.6 1036.8,1 1152,2 C 1267.2,3 1382.4,49.2 1440,61L1440 150L0 150z" fill="rgba(0, 38, 88, 1)"></path><path d="M 0,75 C 96,84.6 288,120.6 480,123 C 672,125.4 768,87 960,87 C 1152,87 1344,115.8 1440,123L1440 150L0 150z" fill="rgba(0, 0, 0, 1)"></path></g><defs><mask id="SvgjsMask1028"><rect width="1440" height="150" fill="#ffffff"></rect></mask></defs></svg>