<svg xmlns="http://www.w3.org/2000/svg" version="1.1" xmlns:xlink="http://www.w3.org/1999/xlink" xmlns:svgjs="http://svgjs.dev/svgjs" width="1440" height="560" preserveAspectRatio="none" viewBox="0 0 1440 560"><g mask="url(&quot;#SvgjsMask1184&quot;)" fill="none"><rect width="1440" height="560" x="0" y="0" fill="rgba(0, 51, 117, 1)"></rect><path d="M846.044,361.146C864.518,361.3,882.334,351.332,890.525,334.772C898.008,319.641,891.514,302.283,882.08,288.285C873.898,276.145,860.684,268.793,846.044,268.774C831.368,268.755,817.946,275.954,809.844,288.191C800.696,302.008,795.464,319.197,802.829,334.041C810.93,350.367,827.82,360.994,846.044,361.146" fill="rgba(28, 83, 142, 0.4)" class="triangle-float2"></path><path d="M293.333,413.073C327.246,414.232,360.933,400.68,378.932,371.914C398.015,341.416,399.848,302.538,382.065,271.264C364.088,239.65,329.673,222.794,293.333,221.375C254.022,219.84,210,228.992,191.732,263.834C174.197,297.278,196.049,335.176,217.3,366.391C235.238,392.74,261.477,411.984,293.333,413.073" fill="rgba(28, 83, 142, 0.4)" class="triangle-float3"></path><path d="M563.7751360114537 16.954459067407186L606.3222576157979 82.47128093709523 683.3239296181579-14.10781240426499z" fill="rgba(28, 83, 142, 0.4)" class="triangle-float1"></path><path d="M618.8286098317778 17.556855553485672L469.90297585419967 20.156362164040246 472.5024824647543 169.0819961416184 621.4281164423325 166.4824895310638z" fill="rgba(28, 83, 142, 0.4)" class="triangle-float2"></path><path d="M61.34890590346959 188.6846801093834L47.550380963632975 301.0646474144601 159.9303482687097 314.86317235429675 173.72887320854633 202.48320504922003z" fill="rgba(28, 83, 142, 0.4)" class="triangle-float3"></path><path d="M1267.198215705327 324.22198861833834L1114.4289427020026 259.3752795377773 1202.351506624766 476.9912616216627z" fill="rgba(28, 83, 142, 0.4)" class="triangle-float2"></path><path d="M1391.329,437.6C1409.908,437.305,1428.146,429.219,1437.128,412.953C1445.857,397.145,1441.679,378.293,1432.745,362.6C1423.696,346.704,1409.62,332.545,1391.329,332.502C1372.98,332.459,1358.903,346.603,1349.573,362.403C1340.042,378.543,1333.841,398.061,1342.941,414.448C1352.245,431.202,1372.167,437.904,1391.329,437.6" fill="rgba(28, 83, 142, 0.4)" class="triangle-float1"></path><path d="M335.26 56.51 a119.47 119.47 0 1 0 238.94 0 a119.47 119.47 0 1 0 -238.94 0z" fill="rgba(28, 83, 142, 0.4)" class="triangle-float1"></path><path d="M1336.355,485.093C1376.767,485.919,1416.046,465.051,1434.725,429.206C1452.269,395.539,1441.241,355.616,1420.345,323.92C1401.706,295.648,1370.139,282.304,1336.355,279.991C1296.802,277.283,1250.915,277.339,1229.768,310.874C1207.773,345.754,1223.187,390.149,1244.707,425.324C1265.107,458.669,1297.273,484.295,1336.355,485.093" fill="rgba(28, 83, 142, 0.4)" class="triangle-float1"></path></g><defs><mask id="SvgjsMask1184"><rect width="1440" height="560" fill="#ffffff"></rect></mask><style>
                @keyframes float1 {
                    0%{transform: translate(0, 0)}
                    50%{transform: translate(-10px, 0)}
                    100%{transform: translate(0, 0)}
                }

                .triangle-float1 {
                    animation: float1 5s infinite;
                }

                @keyframes float2 {
                    0%{transform: translate(0, 0)}
                    50%{transform: translate(-5px, -5px)}
                    100%{transform: translate(0, 0)}
                }

                .triangle-float2 {
                    animation: float2 4s infinite;
                }

                @keyframes float3 {
                    0%{transform: translate(0, 0)}
                    50%{transform: translate(0, -10px)}
                    100%{transform: translate(0, 0)}
                }

                .triangle-float3 {
                    animation: float3 6s infinite;
                }
            </style></defs></svg>